# xmcd
#
# Track frame offsets: 
#        150
#        13625
#        27642
#        39823
#        52231
#        64449
#        76812
#        86542
#        97716
#        109310
#        123634
#        136784
#        148264
#        162796
#        173971
#        187548
#        200882
#        221521
#        237072
#        257764
#        270548
#        283854
#
# Disc length: 3957 seconds
#
# Revision: 0
# Processed by: cddbd v1.5.2PL0 Copyright (c) Steve Scherf et al.
# Submitted via: ExactAudioCopyFreeDBPlugin 1.0
#
DISCID=3b0f7316
DTITLE=Roy Acuff and The Smoky Mountain Boys - The King Of Country Music
DTITLE=Various Artist - Disc 7
DYEAR=1900
DGENRE=Country
TTITLE0=When They Take That Last Look At Me (Take 1)
TTITLE1=When They Take That Last Look At Me (Take 2)
TTITLE2=This World Can't Stand Long (Take 1)
TTITLE3=This World Can't Stand Long (Take 2)
TTITLE4=I Saw The Light
TTITLE5=Heartaches and Flowers
TTITLE6=The Songbirds Are Singing In Heaven (Breakdown)
TTITLE7=The Songbirds Are Singing In Heaven (2 False Starts and Breakdow
TTITLE7=n)
TTITLE8=The Songbirds Are Singing In Heaven (Take 1)
TTITLE9=Unloved And Unclaimed (False Start and Take)
TTITLE10=Unloved And Unclaimed (Take 2)
TTITLE11=I Had A Dream
TTITLE12=Thank God (Breakdown and Take)
TTITLE13=You'll Reap These Tears
TTITLE14=It's Just About Time
TTITLE15=I'll Always Care
TTITLE16=It's So Hard To Smile
TTITLE17=The Waltz Of The Wind
TTITLE18=A Sinner's Death
TTITLE19=The Midnight Train (Take 1)
TTITLE20=The Midnight Train (False Start and Take 1)
TTITLE21=The Midnight Train (Take 3)
EXTD=
EXTT0=
EXTT1=
EXTT2=
EXTT3=
EXTT4=
EXTT5=
EXTT6=
EXTT7=
EXTT8=
EXTT9=
EXTT10=
EXTT11=
EXTT12=
EXTT13=
EXTT14=
EXTT15=
EXTT16=
EXTT17=
EXTT18=
EXTT19=
EXTT20=
EXTT21=
PLAYORDER=
